Movies/XVID
Size:	1.20 GB

Genres:	Action , Sci-Fi , Thriller
Actors:	Bruce Willis , Radha Mitchell , Rosamund Pike , Boris Kodjoe , James Francis Ginty , James 

Cromwell , Ving Rhames , Jack Noseworthy , Devin Ratray , Michael Cudlitz , Jeffrey De Serrano , Helena 

Mattsson , Michael Phillip , Danny F Smith , Brian A. Parrish
Director:	Jonathan Mostow
Runtime:	88 min
Year:	2009
Plot:	Set in a futuristic world where humans live in isolation and interact through surrogate robots| 

a cop (Willis) is forced to leave his home for the first time in years in order to investigate the 

murders of others? surrogates.
NFO:	

Format                           : AVI
Format/Info                      : Audio Video Interleave
File size                        : 810 MiB
Duration                         : 1h 24mn
Overall bit rate                 : 1 341 Kbps
Writing application              : VirtualDubMod 1.5.10.2 (build 2542/release)
Writing library                  : VirtualDubMod build 2542/release
Original source form             : MAX TORRENTZ
Copyright                        : SIGISMUNT

Video
Format                           : xvid
Codec ID                         : xvid
Duration                         : 1h 24mn
Bit rate                         : 1 200 Kbps
Width                            : 704 pixels
Height                           : 366 pixels
Display aspect ratio             : 1.923
Frame rate                       : 23.976 fps
Resolution                       : 24 bits
Bits/(Pixel*Frame)               : 0.194
Stream size                      : 725 MiB (90%)

Audio
ID                               : 1
Format                           : MPEG Audio
Format version                   : Version 1
Format profile                   : Layer 3
Codec ID                         : 55
Codec ID/Hint                    : MP3
Duration                         : 1h 24mn
Bit rate mode                    : Constant
Bit rate                         : 128 Kbps
Channel(s)                       : 2 channels
Sampling rate                    : 48.0 KHz
Resolution                       : 16 bits
Stream size                      : 77.3 MiB (10%)
Alignment                        : Aligned on interleaves
Interleave, duration             : 24 ms (0.58 video frame)
Interleave, preload duration     : 24 ms




